<?xml version="1.0" encoding="UTF-8"?>
<svg xmlns="http://www.w3.org/2000/svg" xmlns:xlink="http://www.w3.org/1999/xlink" width="650" height="300" viewBox="0 0 650 300">
<defs>
<g>
<g id="glyph-0-0-ea1db8db">
<path d="M 3.5625 0 C 3.15625 0.0625 2.890625 0.09375 2.609375 0.09375 C 1.6875 0.09375 1.1875 -0.328125 1.1875 -1.0625 C 1.1875 -1.0625 1.1875 -6.390625 1.1875 -6.390625 C 1.1875 -6.390625 0.203125 -6.390625 0.203125 -6.390625 C 0.203125 -6.390625 0.203125 -7.34375 0.203125 -7.34375 C 0.203125 -7.34375 1.1875 -7.34375 1.1875 -7.34375 C 1.1875 -7.34375 1.1875 -9.359375 1.1875 -9.359375 C 1.1875 -9.359375 2.359375 -9.359375 2.359375 -9.359375 C 2.359375 -9.359375 2.359375 -7.34375 2.359375 -7.34375 C 2.359375 -7.34375 3.5625 -7.34375 3.5625 -7.34375 C 3.5625 -7.34375 3.5625 -6.390625 3.5625 -6.390625 C 3.5625 -6.390625 2.359375 -6.390625 2.359375 -6.390625 C 2.359375 -6.390625 2.359375 -1.578125 2.359375 -1.578125 C 2.359375 -1.0625 2.484375 -0.921875 3 -0.921875 C 3.21875 -0.921875 3.40625 -0.9375 3.5625 -0.984375 C 3.5625 -0.984375 3.5625 0 3.5625 0 Z M 3.5625 0 "/>
</g>
<g id="glyph-0-1-ea1db8db">
<path d="M 2.140625 0 C 2.140625 0 0.984375 0 0.984375 0 C 0.984375 0 0.984375 -7.34375 0.984375 -7.34375 C 0.984375 -7.34375 2.140625 -7.34375 2.140625 -7.34375 C 2.140625 -7.34375 2.140625 0 2.140625 0 Z M 2.296875 -8.4375 C 2.296875 -8.4375 0.84375 -8.4375 0.84375 -8.4375 C 0.84375 -8.4375 0.84375 -9.890625 0.84375 -9.890625 C 0.84375 -9.890625 2.296875 -9.890625 2.296875 -9.890625 C 2.296875 -9.890625 2.296875 -8.4375 2.296875 -8.4375 Z M 2.296875 -8.4375 "/>
</g>
<g id="glyph-0-2-ea1db8db">
<path d="M 10.640625 0 C 10.640625 0 9.484375 0 9.484375 0 C 9.484375 0 9.484375 -5.046875 9.484375 -5.046875 C 9.484375 -5.984375 8.984375 -6.53125 8.140625 -6.53125 C 7.1875 -6.53125 6.390625 -5.671875 6.390625 -4.609375 C 6.390625 -4.609375 6.390625 0 6.390625 0 C 6.390625 0 5.234375 0 5.234375 0 C 5.234375 0 5.234375 -5.046875 5.234375 -5.046875 C 5.234375 -5.984375 4.75 -6.53125 3.875 -6.53125 C 2.921875 -6.53125 2.15625 -5.671875 2.15625 -4.609375 C 2.15625 -4.609375 2.15625 0 2.15625 0 C 2.15625 0 1 0 1 0 C 1 0 1 -7.34375 1 -7.34375 C 1 -7.34375 2.0625 -7.34375 2.0625 -7.34375 C 2.0625 -7.34375 2.0625 -6.296875 2.0625 -6.296875 C 2.6875 -7.1875 3.328125 -7.546875 4.3125 -7.546875 C 5.265625 -7.546875 5.859375 -7.203125 6.28125 -6.421875 C 6.96875 -7.25 7.5625 -7.546875 8.546875 -7.546875 C 9.90625 -7.546875 10.640625 -6.8125 10.640625 -5.5 C 10.640625 -5.5 10.640625 0 10.640625 0 Z M 10.640625 0 "/>
</g>
<g id="glyph-0-3-ea1db8db">
<path d="M 7.1875 -3.328125 C 7.1875 -3.328125 1.78125 -3.328125 1.78125 -3.328125 C 1.8125 -1.65625 2.71875 -0.875 3.9375 -0.875 C 4.875 -0.875 5.53125 -1.265625 5.859375 -2.21875 C 5.859375 -2.21875 7.03125 -2.21875 7.03125 -2.21875 C 6.734375 -0.734375 5.578125 0.203125 3.890625 0.203125 C 1.828125 0.203125 0.5625 -1.21875 0.5625 -3.625 C 0.5625 -6.03125 1.875 -7.546875 3.921875 -7.546875 C 5.296875 -7.546875 6.40625 -6.8125 6.890625 -5.609375 C 7.09375 -5.0625 7.1875 -4.390625 7.1875 -3.328125 Z M 5.9375 -4.375 C 5.9375 -5.515625 5.046875 -6.46875 3.90625 -6.46875 C 2.734375 -6.46875 1.90625 -5.59375 1.8125 -4.28125 C 1.8125 -4.28125 5.921875 -4.28125 5.921875 -4.28125 C 5.9375 -4.3125 5.9375 -4.375 5.9375 -4.375 Z M 5.9375 -4.375 "/>
</g>
<g id="glyph-0-4-ea1db8db">
</g>
<g id="glyph-0-5-ea1db8db">
<path d="M 3.5 2.96875 C 3.5 2.96875 0.890625 2.96875 0.890625 2.96875 C 0.890625 2.96875 0.890625 -10.203125 0.890625 -10.203125 C 0.890625 -10.203125 3.5 -10.203125 3.5 -10.203125 C 3.5 -10.203125 3.5 -9.203125 3.5 -9.203125 C 3.5 -9.203125 2.0625 -9.203125 2.0625 -9.203125 C 2.0625 -9.203125 2.0625 1.953125 2.0625 1.953125 C 2.0625 1.953125 3.5 1.953125 3.5 1.953125 C 3.5 1.953125 3.5 2.96875 3.5 2.96875 Z M 3.5 2.96875 "/>
</g>
<g id="glyph-0-6-ea1db8db">
<path d="M 6.421875 -2.0625 C 6.421875 -0.640625 5.25 0.203125 3.40625 0.203125 C 1.484375 0.203125 0.53125 -0.546875 0.46875 -2.234375 C 0.46875 -2.234375 1.703125 -2.234375 1.703125 -2.234375 C 1.859375 -1.125 2.453125 -0.875 3.5 -0.875 C 4.515625 -0.875 5.203125 -1.28125 5.203125 -1.953125 C 5.203125 -2.484375 4.890625 -2.734375 4.078125 -2.921875 C 4.078125 -2.921875 2.984375 -3.1875 2.984375 -3.1875 C 1.25 -3.609375 0.65625 -4.15625 0.65625 -5.3125 C 0.65625 -6.65625 1.765625 -7.546875 3.46875 -7.546875 C 5.171875 -7.546875 6.125 -6.734375 6.125 -5.296875 C 6.125 -5.296875 4.90625 -5.296875 4.90625 -5.296875 C 4.875 -6.0625 4.375 -6.46875 3.4375 -6.46875 C 2.484375 -6.46875 1.875 -6.03125 1.875 -5.359375 C 1.875 -4.84375 2.28125 -4.53125 3.234375 -4.3125 C 3.234375 -4.3125 4.359375 -4.046875 4.359375 -4.046875 C 5.8125 -3.703125 6.421875 -3.15625 6.421875 -2.0625 Z M 6.421875 -2.0625 "/>
</g>
<g id="glyph-0-7-ea1db8db">
<path d="M 2.921875 2.96875 C 2.921875 2.96875 0.328125 2.96875 0.328125 2.96875 C 0.328125 2.96875 0.328125 1.953125 0.328125 1.953125 C 0.328125 1.953125 1.765625 1.953125 1.765625 1.953125 C 1.765625 1.953125 1.765625 -9.203125 1.765625 -9.203125 C 1.765625 -9.203125 0.328125 -9.203125 0.328125 -9.203125 C 0.328125 -9.203125 0.328125 -10.203125 0.328125 -10.203125 C 0.328125 -10.203125 2.921875 -10.203125 2.921875 -10.203125 C 2.921875 -10.203125 2.921875 2.96875 2.921875 2.96875 Z M 2.921875 2.96875 "/>
</g>
<g id="glyph-0-8-ea1db8db">
<path d="M 7.09375 -4.78125 C 7.09375 -1.515625 5.953125 0.203125 3.84375 0.203125 C 1.71875 0.203125 0.609375 -1.515625 0.609375 -4.859375 C 0.609375 -8.1875 1.703125 -9.921875 3.84375 -9.921875 C 6 -9.921875 7.09375 -8.21875 7.09375 -4.78125 Z M 5.84375 -4.890625 C 5.84375 -7.546875 5.1875 -8.828125 3.84375 -8.828125 C 2.515625 -8.828125 1.859375 -7.5625 1.859375 -4.84375 C 1.859375 -2.125 2.515625 -0.8125 3.828125 -0.8125 C 5.1875 -0.8125 5.84375 -2.078125 5.84375 -4.890625 Z M 5.84375 -4.890625 "/>
</g>
<g id="glyph-0-9-ea1db8db">
<path d="M 7.1875 -3.296875 C 7.1875 -1.1875 5.78125 0.203125 3.78125 0.203125 C 2.015625 0.203125 0.890625 -0.578125 0.484375 -2.546875 C 0.484375 -2.546875 1.71875 -2.546875 1.71875 -2.546875 C 2.015625 -1.421875 2.671875 -0.875 3.75 -0.875 C 5.09375 -0.875 5.921875 -1.6875 5.921875 -3.125 C 5.921875 -4.59375 5.078125 -5.453125 3.75 -5.453125 C 2.984375 -5.453125 2.5 -5.203125 1.9375 -4.515625 C 1.9375 -4.515625 0.796875 -4.515625 0.796875 -4.515625 C 0.796875 -4.515625 1.546875 -9.71875 1.546875 -9.71875 C 1.546875 -9.71875 6.65625 -9.71875 6.65625 -9.71875 C 6.65625 -9.71875 6.65625 -8.5 6.65625 -8.5 C 6.65625 -8.5 2.53125 -8.5 2.53125 -8.5 C 2.53125 -8.5 2.140625 -5.9375 2.140625 -5.9375 C 2.71875 -6.359375 3.28125 -6.53125 3.96875 -6.53125 C 5.875 -6.53125 7.1875 -5.25 7.1875 -3.296875 Z M 7.1875 -3.296875 "/>
</g>
<g id="glyph-0-10-ea1db8db">
<path d="M 4.859375 0 C 4.859375 0 3.625 0 3.625 0 C 3.625 0 3.625 -7.0625 3.625 -7.0625 C 3.625 -7.0625 1.421875 -7.0625 1.421875 -7.0625 C 1.421875 -7.0625 1.421875 -7.953125 1.421875 -7.953125 C 3.328125 -8.1875 3.609375 -8.40625 4.046875 -9.921875 C 4.046875 -9.921875 4.859375 -9.921875 4.859375 -9.921875 C 4.859375 -9.921875 4.859375 0 4.859375 0 Z M 4.859375 0 "/>
</g>
<g id="glyph-0-11-ea1db8db">
<path d="M 7.15625 -7.015625 C 7.15625 -5.796875 6.4375 -4.765625 5.046875 -4.015625 C 5.046875 -4.015625 3.65625 -3.265625 3.65625 -3.265625 C 2.4375 -2.546875 1.984375 -2.03125 1.859375 -1.21875 C 1.859375 -1.21875 7.078125 -1.21875 7.078125 -1.21875 C 7.078125 -1.21875 7.078125 0 7.078125 0 C 7.078125 0 0.46875 0 0.46875 0 C 0.59375 -2.1875 1.1875 -3.125 3.265625 -4.296875 C 3.265625 -4.296875 4.546875 -5.03125 4.546875 -5.03125 C 5.4375 -5.53125 5.890625 -6.203125 5.890625 -6.984375 C 5.890625 -8.046875 5.046875 -8.84375 3.9375 -8.84375 C 2.71875 -8.84375 2.03125 -8.140625 1.9375 -6.484375 C 1.9375 -6.484375 0.703125 -6.484375 0.703125 -6.484375 C 0.765625 -8.890625 1.953125 -9.921875 3.96875 -9.921875 C 5.859375 -9.921875 7.15625 -8.6875 7.15625 -7.015625 Z M 7.15625 -7.015625 "/>
</g>
<g id="glyph-0-12-ea1db8db">
<path d="M 7.21875 -3.03125 C 7.21875 -3.03125 0.953125 -3.03125 0.953125 -3.03125 C 0.953125 -3.03125 0.953125 -3.96875 0.953125 -3.96875 C 0.953125 -3.96875 7.21875 -3.96875 7.21875 -3.96875 C 7.21875 -3.96875 7.21875 -3.03125 7.21875 -3.03125 Z M 7.21875 -3.03125 "/>
</g>
<g id="glyph-0-13-ea1db8db">
<path d="M 2.671875 0 C 2.671875 0 1.21875 0 1.21875 0 C 1.21875 0 1.21875 -1.453125 1.21875 -1.453125 C 1.21875 -1.453125 2.671875 -1.453125 2.671875 -1.453125 C 2.671875 -1.453125 2.671875 0 2.671875 0 Z M 2.671875 0 "/>
</g>
<g id="glyph-0-14-ea1db8db">
<path d="M 7.03125 0 C 7.03125 0 5.59375 0 5.59375 0 C 5.59375 0 3.109375 -3.96875 3.109375 -3.96875 C 3.109375 -3.96875 1.96875 -2.859375 1.96875 -2.859375 C 1.96875 -2.859375 1.96875 0 1.96875 0 C 1.96875 0 0.8125 0 0.8125 0 C 0.8125 0 0.8125 -10.203125 0.8125 -10.203125 C 0.8125 -10.203125 1.96875 -10.203125 1.96875 -10.203125 C 1.96875 -10.203125 1.96875 -4.234375 1.96875 -4.234375 C 1.96875 -4.234375 5.078125 -7.34375 5.078125 -7.34375 C 5.078125 -7.34375 6.578125 -7.34375 6.578125 -7.34375 C 6.578125 -7.34375 4.03125 -4.796875 4.03125 -4.796875 C 4.03125 -4.796875 7.03125 0 7.03125 0 Z M 7.03125 0 "/>
</g>
<g id="glyph-0-15-ea1db8db">
<path d="M 6.84375 -1.203125 C 6.84375 2.03125 5.859375 3.046875 3.5625 3.046875 C 1.84375 3.046875 0.765625 2.21875 0.640625 0.84375 C 0.640625 0.84375 1.828125 0.84375 1.828125 0.84375 C 1.96875 1.734375 2.6875 2.078125 3.609375 2.078125 C 4.96875 2.078125 5.765625 1.328125 5.765625 -0.609375 C 5.765625 -0.609375 5.765625 -1.109375 5.765625 -1.109375 C 5 -0.1875 4.359375 0.203125 3.4375 0.203125 C 1.703125 0.203125 0.40625 -1.28125 0.40625 -3.59375 C 0.40625 -5.984375 1.671875 -7.546875 3.53125 -7.546875 C 4.46875 -7.546875 5.1875 -7.140625 5.765625 -6.265625 C 5.765625 -6.265625 5.765625 -7.34375 5.765625 -7.34375 C 5.765625 -7.34375 6.84375 -7.34375 6.84375 -7.34375 C 6.84375 -7.34375 6.84375 -1.203125 6.84375 -1.203125 Z M 5.65625 -3.625 C 5.65625 -5.40625 4.90625 -6.46875 3.65625 -6.46875 C 2.40625 -6.46875 1.625 -5.4375 1.625 -3.671875 C 1.625 -1.890625 2.390625 -0.875 3.671875 -0.875 C 4.90625 -0.875 5.65625 -1.875 5.65625 -3.625 Z M 5.65625 -3.625 "/>
</g>
<g id="glyph-0-16-ea1db8db">
<path d="M 7.078125 -2.890625 C 7.078125 -1.015625 5.765625 0.203125 3.71875 0.203125 C 1.6875 0.203125 0.609375 -0.78125 0.453125 -3 C 0.453125 -3 1.6875 -3 1.6875 -3 C 1.765625 -1.546875 2.421875 -0.875 3.765625 -0.875 C 5.046875 -0.875 5.828125 -1.625 5.828125 -2.875 C 5.828125 -3.96875 5.125 -4.625 3.765625 -4.625 C 3.765625 -4.625 3.09375 -4.625 3.09375 -4.625 C 3.09375 -4.625 3.09375 -5.65625 3.09375 -5.65625 C 5.0625 -5.65625 5.53125 -6.09375 5.53125 -7.15625 C 5.53125 -8.203125 4.875 -8.84375 3.78125 -8.84375 C 2.515625 -8.84375 1.921875 -8.1875 1.890625 -6.71875 C 1.890625 -6.71875 0.65625 -6.71875 0.65625 -6.71875 C 0.703125 -8.828125 1.765625 -9.921875 3.765625 -9.921875 C 5.65625 -9.921875 6.796875 -8.90625 6.796875 -7.203125 C 6.796875 -6.203125 6.328125 -5.5625 5.40625 -5.1875 C 6.59375 -4.78125 7.078125 -4.09375 7.078125 -2.890625 Z M 7.078125 -2.890625 "/>
</g>
<g id="glyph-1-0-ea1db8db">
<path d="M 0 -6.9375 C 0 -6.9375 0 -5.890625 0 -5.890625 C 0 -5.890625 -1.078125 -5.890625 -1.078125 -5.890625 C -0.171875 -5.265625 0.203125 -4.5625 0.203125 -3.5625 C 0.203125 -1.578125 -1.265625 -0.359375 -3.734375 -0.359375 C -6.078125 -0.359375 -7.546875 -1.609375 -7.546875 -3.515625 C -7.546875 -4.5 -7.15625 -5.28125 -6.40625 -5.765625 C -6.40625 -5.765625 -10.203125 -5.765625 -10.203125 -5.765625 C -10.203125 -5.765625 -10.203125 -6.9375 -10.203125 -6.9375 C -10.203125 -6.9375 0 -6.9375 0 -6.9375 Z M -3.640625 -5.765625 C -5.328125 -5.765625 -6.453125 -4.96875 -6.453125 -3.703125 C -6.453125 -2.4375 -5.375 -1.578125 -3.671875 -1.578125 C -1.953125 -1.578125 -0.875 -2.4375 -0.875 -3.71875 C -0.875 -4.953125 -1.953125 -5.765625 -3.640625 -5.765625 Z M -3.640625 -5.765625 "/>
</g>
<g id="glyph-1-1-ea1db8db">
<path d="M -2.0625 -6.421875 C -0.640625 -6.421875 0.203125 -5.25 0.203125 -3.40625 C 0.203125 -1.484375 -0.546875 -0.53125 -2.234375 -0.46875 C -2.234375 -0.46875 -2.234375 -1.703125 -2.234375 -1.703125 C -1.125 -1.859375 -0.875 -2.453125 -0.875 -3.5 C -0.875 -4.515625 -1.28125 -5.203125 -1.953125 -5.203125 C -2.484375 -5.203125 -2.734375 -4.890625 -2.921875 -4.078125 C -2.921875 -4.078125 -3.1875 -2.984375 -3.1875 -2.984375 C -3.609375 -1.25 -4.15625 -0.65625 -5.3125 -0.65625 C -6.65625 -0.65625 -7.546875 -1.765625 -7.546875 -3.46875 C -7.546875 -5.171875 -6.734375 -6.125 -5.296875 -6.125 C -5.296875 -6.125 -5.296875 -4.90625 -5.296875 -4.90625 C -6.0625 -4.875 -6.46875 -4.375 -6.46875 -3.4375 C -6.46875 -2.484375 -6.03125 -1.875 -5.359375 -1.875 C -4.84375 -1.875 -4.53125 -2.28125 -4.3125 -3.234375 C -4.3125 -3.234375 -4.046875 -4.359375 -4.046875 -4.359375 C -3.703125 -5.8125 -3.15625 -6.421875 -2.0625 -6.421875 Z M -2.0625 -6.421875 "/>
</g>
<g id="glyph-2-0-ea1db8db">
<path d="M 0 -2.140625 C 0 -2.140625 0 -0.984375 0 -0.984375 C 0 -0.984375 -7.34375 -0.984375 -7.34375 -0.984375 C -7.34375 -0.984375 -7.34375 -2.140625 -7.34375 -2.140625 C -7.34375 -2.140625 0 -2.140625 0 -2.140625 Z M -8.4375 -2.296875 C -8.4375 -2.296875 -8.4375 -0.84375 -8.4375 -0.84375 C -8.4375 -0.84375 -9.890625 -0.84375 -9.890625 -0.84375 C -9.890625 -0.84375 -9.890625 -2.296875 -9.890625 -2.296875 C -9.890625 -2.296875 -8.4375 -2.296875 -8.4375 -2.296875 Z M -8.4375 -2.296875 "/>
</g>
<g id="glyph-2-1-ea1db8db">
<path d="M -2.0625 -6.421875 C -0.640625 -6.421875 0.203125 -5.25 0.203125 -3.40625 C 0.203125 -1.484375 -0.546875 -0.53125 -2.234375 -0.46875 C -2.234375 -0.46875 -2.234375 -1.703125 -2.234375 -1.703125 C -1.125 -1.859375 -0.875 -2.453125 -0.875 -3.5 C -0.875 -4.515625 -1.28125 -5.203125 -1.953125 -5.203125 C -2.484375 -5.203125 -2.734375 -4.890625 -2.921875 -4.078125 C -2.921875 -4.078125 -3.1875 -2.984375 -3.1875 -2.984375 C -3.609375 -1.25 -4.15625 -0.65625 -5.3125 -0.65625 C -6.65625 -0.65625 -7.546875 -1.765625 -7.546875 -3.46875 C -7.546875 -5.171875 -6.734375 -6.125 -5.296875 -6.125 C -5.296875 -6.125 -5.296875 -4.90625 -5.296875 -4.90625 C -6.0625 -4.875 -6.46875 -4.375 -6.46875 -3.4375 C -6.46875 -2.484375 -6.03125 -1.875 -5.359375 -1.875 C -4.84375 -1.875 -4.53125 -2.28125 -4.3125 -3.234375 C -4.3125 -3.234375 -4.046875 -4.359375 -4.046875 -4.359375 C -3.703125 -5.8125 -3.15625 -6.421875 -2.0625 -6.421875 Z M -2.0625 -6.421875 "/>
</g>
<g id="glyph-2-2-ea1db8db">
</g>
<g id="glyph-2-3-ea1db8db">
<path d="M 0 -4.859375 C 0 -4.859375 0 -3.625 0 -3.625 C 0 -3.625 -7.0625 -3.625 -7.0625 -3.625 C -7.0625 -3.625 -7.0625 -1.421875 -7.0625 -1.421875 C -7.0625 -1.421875 -7.953125 -1.421875 -7.953125 -1.421875 C -8.1875 -3.328125 -8.40625 -3.609375 -9.921875 -4.046875 C -9.921875 -4.046875 -9.921875 -4.859375 -9.921875 -4.859375 C -9.921875 -4.859375 0 -4.859375 0 -4.859375 Z M 0 -4.859375 "/>
</g>
<g id="glyph-3-0-ea1db8db">
<path d="M -3.59375 -7.328125 C -1.265625 -7.328125 0.203125 -6.078125 0.203125 -4.1875 C 0.203125 -3.234375 -0.125 -2.546875 -0.875 -1.9375 C -0.875 -1.9375 3.046875 -1.9375 3.046875 -1.9375 C 3.046875 -1.9375 3.046875 -0.765625 3.046875 -0.765625 C 3.046875 -0.765625 -7.34375 -0.765625 -7.34375 -0.765625 C -7.34375 -0.765625 -7.34375 -1.828125 -7.34375 -1.828125 C -7.34375 -1.828125 -6.234375 -1.828125 -6.234375 -1.828125 C -7.09375 -2.375 -7.546875 -3.171875 -7.546875 -4.171875 C -7.546875 -6.125 -6.0625 -7.328125 -3.59375 -7.328125 Z M -3.625 -6.109375 C -5.375 -6.109375 -6.453125 -5.265625 -6.453125 -3.96875 C -6.453125 -2.75 -5.328125 -1.9375 -3.609375 -1.9375 C -1.890625 -1.9375 -0.875 -2.75 -0.875 -3.96875 C -0.875 -5.25 -1.953125 -6.109375 -3.625 -6.109375 Z M -3.625 -6.109375 "/>
</g>
<g id="glyph-3-1-ea1db8db">
<path d="M 0 -2.109375 C 0 -2.109375 0 -0.953125 0 -0.953125 C 0 -0.953125 -10.203125 -0.953125 -10.203125 -0.953125 C -10.203125 -0.953125 -10.203125 -2.109375 -10.203125 -2.109375 C -10.203125 -2.109375 0 -2.109375 0 -2.109375 Z M 0 -2.109375 "/>
</g>
<g id="glyph-3-2-ea1db8db">
<path d="M -0.03125 -7.484375 C 0.0625 -7.109375 0.09375 -6.9375 0.09375 -6.6875 C 0.09375 -6.125 -0.3125 -5.609375 -0.875 -5.484375 C -0.1875 -4.84375 0.203125 -3.9375 0.203125 -3 C 0.203125 -1.515625 -0.578125 -0.59375 -1.90625 -0.59375 C -2.796875 -0.59375 -3.453125 -1.015625 -3.8125 -1.875 C -3.984375 -2.328125 -4.046875 -2.578125 -4.25 -4.234375 C -4.375 -5.15625 -4.578125 -5.453125 -5.0625 -5.453125 C -5.0625 -5.453125 -5.375 -5.453125 -5.375 -5.453125 C -6.078125 -5.453125 -6.46875 -4.859375 -6.46875 -3.8125 C -6.46875 -2.71875 -6.0625 -2.1875 -5.171875 -2.09375 C -5.171875 -2.09375 -5.171875 -0.90625 -5.171875 -0.90625 C -6.859375 -0.984375 -7.546875 -2.078125 -7.546875 -3.84375 C -7.546875 -5.65625 -6.84375 -6.609375 -5.546875 -6.609375 C -5.546875 -6.609375 -1.453125 -6.609375 -1.453125 -6.609375 C -1.09375 -6.609375 -0.875 -6.828125 -0.875 -7.234375 C -0.875 -7.3125 -0.875 -7.359375 -0.90625 -7.484375 C -0.90625 -7.484375 -0.03125 -7.484375 -0.03125 -7.484375 Z M -2.53125 -5.453125 C -2.53125 -5.453125 -3.625 -5.453125 -3.625 -5.453125 C -3.4375 -5.046875 -3.390625 -4.796875 -3.21875 -3.5625 C -3.03125 -2.328125 -2.703125 -1.8125 -1.9375 -1.8125 C -1.140625 -1.8125 -0.8125 -2.34375 -0.8125 -3.25 C -0.8125 -4.375 -1.484375 -5.453125 -2.53125 -5.453125 Z M -2.53125 -5.453125 "/>
</g>
<g id="glyph-3-3-ea1db8db">
<path d="M -2.515625 -6.671875 C -0.84375 -6.53125 0.203125 -5.4375 0.203125 -3.6875 C 0.203125 -1.6875 -1.234375 -0.4375 -3.59375 -0.4375 C -6.03125 -0.4375 -7.546875 -1.71875 -7.546875 -3.703125 C -7.546875 -5.328125 -6.65625 -6.453125 -4.875 -6.59375 C -4.875 -6.59375 -4.875 -5.421875 -4.875 -5.421875 C -5.890625 -5.28125 -6.46875 -4.65625 -6.46875 -3.6875 C -6.46875 -2.40625 -5.4375 -1.65625 -3.59375 -1.65625 C -1.859375 -1.65625 -0.875 -2.421875 -0.875 -3.703125 C -0.875 -4.703125 -1.34375 -5.3125 -2.515625 -5.5 C -2.515625 -5.5 -2.515625 -6.671875 -2.515625 -6.671875 Z M -2.515625 -6.671875 "/>
</g>
<g id="glyph-3-4-ea1db8db">
<path d="M -3.328125 -7.1875 C -3.328125 -7.1875 -3.328125 -1.78125 -3.328125 -1.78125 C -1.65625 -1.8125 -0.875 -2.71875 -0.875 -3.9375 C -0.875 -4.875 -1.265625 -5.53125 -2.21875 -5.859375 C -2.21875 -5.859375 -2.21875 -7.03125 -2.21875 -7.03125 C -0.734375 -6.734375 0.203125 -5.578125 0.203125 -3.890625 C 0.203125 -1.828125 -1.21875 -0.5625 -3.625 -0.5625 C -6.03125 -0.5625 -7.546875 -1.875 -7.546875 -3.921875 C -7.546875 -5.296875 -6.8125 -6.40625 -5.609375 -6.890625 C -5.0625 -7.09375 -4.390625 -7.1875 -3.328125 -7.1875 Z M -4.375 -5.9375 C -5.515625 -5.9375 -6.46875 -5.046875 -6.46875 -3.90625 C -6.46875 -2.734375 -5.59375 -1.90625 -4.28125 -1.8125 C -4.28125 -1.8125 -4.28125 -5.921875 -4.28125 -5.921875 C -4.3125 -5.9375 -4.375 -5.9375 -4.375 -5.9375 Z M -4.375 -5.9375 "/>
</g>
<g id="glyph-3-5-ea1db8db">
</g>
<g id="glyph-3-6-ea1db8db">
<path d="M 2.96875 -3.5 C 2.96875 -3.5 2.96875 -0.890625 2.96875 -0.890625 C 2.96875 -0.890625 -10.203125 -0.890625 -10.203125 -0.890625 C -10.203125 -0.890625 -10.203125 -3.5 -10.203125 -3.5 C -10.203125 -3.5 -9.203125 -3.5 -9.203125 -3.5 C -9.203125 -3.5 -9.203125 -2.0625 -9.203125 -2.0625 C -9.203125 -2.0625 1.953125 -2.0625 1.953125 -2.0625 C 1.953125 -2.0625 1.953125 -3.5 1.953125 -3.5 C 1.953125 -3.5 2.96875 -3.5 2.96875 -3.5 Z M 2.96875 -3.5 "/>
</g>
<g id="glyph-3-7-ea1db8db">
<path d="M 0 -10.640625 C 0 -10.640625 0 -9.484375 0 -9.484375 C 0 -9.484375 -5.046875 -9.484375 -5.046875 -9.484375 C -5.984375 -9.484375 -6.53125 -8.984375 -6.53125 -8.140625 C -6.53125 -7.1875 -5.671875 -6.390625 -4.609375 -6.390625 C -4.609375 -6.390625 0 -6.390625 0 -6.390625 C 0 -6.390625 0 -5.234375 0 -5.234375 C 0 -5.234375 -5.046875 -5.234375 -5.046875 -5.234375 C -5.984375 -5.234375 -6.53125 -4.75 -6.53125 -3.875 C -6.53125 -2.921875 -5.671875 -2.15625 -4.609375 -2.15625 C -4.609375 -2.15625 0 -2.15625 0 -2.15625 C 0 -2.15625 0 -1 0 -1 C 0 -1 -7.34375 -1 -7.34375 -1 C -7.34375 -1 -7.34375 -2.0625 -7.34375 -2.0625 C -7.34375 -2.0625 -6.296875 -2.0625 -6.296875 -2.0625 C -7.1875 -2.6875 -7.546875 -3.328125 -7.546875 -4.3125 C -7.546875 -5.265625 -7.203125 -5.859375 -6.421875 -6.28125 C -7.25 -6.96875 -7.546875 -7.5625 -7.546875 -8.546875 C -7.546875 -9.90625 -6.8125 -10.640625 -5.5 -10.640625 C -5.5 -10.640625 0 -10.640625 0 -10.640625 Z M 0 -10.640625 "/>
</g>
<g id="glyph-3-8-ea1db8db">
<path d="M 2.96875 -2.921875 C 2.96875 -2.921875 2.96875 -0.328125 2.96875 -0.328125 C 2.96875 -0.328125 1.953125 -0.328125 1.953125 -0.328125 C 1.953125 -0.328125 1.953125 -1.765625 1.953125 -1.765625 C 1.953125 -1.765625 -9.203125 -1.765625 -9.203125 -1.765625 C -9.203125 -1.765625 -9.203125 -0.328125 -9.203125 -0.328125 C -9.203125 -0.328125 -10.203125 -0.328125 -10.203125 -0.328125 C -10.203125 -0.328125 -10.203125 -2.921875 -10.203125 -2.921875 C -10.203125 -2.921875 2.96875 -2.921875 2.96875 -2.921875 Z M 2.96875 -2.921875 "/>
</g>
<g id="glyph-4-0-ea1db8db">
<path d="M 0 -10.640625 C 0 -10.640625 0 -9.484375 0 -9.484375 C 0 -9.484375 -5.046875 -9.484375 -5.046875 -9.484375 C -5.984375 -9.484375 -6.53125 -8.984375 -6.53125 -8.140625 C -6.53125 -7.1875 -5.671875 -6.390625 -4.609375 -6.390625 C -4.609375 -6.390625 0 -6.390625 0 -6.390625 C 0 -6.390625 0 -5.234375 0 -5.234375 C 0 -5.234375 -5.046875 -5.234375 -5.046875 -5.234375 C -5.984375 -5.234375 -6.53125 -4.75 -6.53125 -3.875 C -6.53125 -2.921875 -5.671875 -2.15625 -4.609375 -2.15625 C -4.609375 -2.15625 0 -2.15625 0 -2.15625 C 0 -2.15625 0 -1 0 -1 C 0 -1 -7.34375 -1 -7.34375 -1 C -7.34375 -1 -7.34375 -2.0625 -7.34375 -2.0625 C -7.34375 -2.0625 -6.296875 -2.0625 -6.296875 -2.0625 C -7.1875 -2.6875 -7.546875 -3.328125 -7.546875 -4.3125 C -7.546875 -5.265625 -7.203125 -5.859375 -6.421875 -6.28125 C -7.25 -6.96875 -7.546875 -7.5625 -7.546875 -8.546875 C -7.546875 -9.90625 -6.8125 -10.640625 -5.5 -10.640625 C -5.5 -10.640625 0 -10.640625 0 -10.640625 Z M 0 -10.640625 "/>
</g>
<g id="glyph-5-0-ea1db8db">
<path d="M 0 -6.8125 C 0 -6.8125 0 -5.65625 0 -5.65625 C 0 -5.65625 -5.078125 -5.65625 -5.078125 -5.65625 C -5.96875 -5.65625 -6.53125 -5.0625 -6.53125 -4.140625 C -6.53125 -2.953125 -5.546875 -2.140625 -4.046875 -2.140625 C -4.046875 -2.140625 0 -2.140625 0 -2.140625 C 0 -2.140625 0 -0.984375 0 -0.984375 C 0 -0.984375 -7.34375 -0.984375 -7.34375 -0.984375 C -7.34375 -0.984375 -7.34375 -2.0625 -7.34375 -2.0625 C -7.34375 -2.0625 -6.109375 -2.0625 -6.109375 -2.0625 C -7.125 -2.703125 -7.546875 -3.40625 -7.546875 -4.5 C -7.546875 -5.90625 -6.765625 -6.8125 -5.546875 -6.8125 C -5.546875 -6.8125 0 -6.8125 0 -6.8125 Z M 0 -6.8125 "/>
</g>
<g id="glyph-6-0-ea1db8db">
<path d="M 0 -3.5625 C 0.0625 -3.15625 0.09375 -2.890625 0.09375 -2.609375 C 0.09375 -1.6875 -0.328125 -1.1875 -1.0625 -1.1875 C -1.0625 -1.1875 -6.390625 -1.1875 -6.390625 -1.1875 C -6.390625 -1.1875 -6.390625 -0.203125 -6.390625 -0.203125 C -6.390625 -0.203125 -7.34375 -0.203125 -7.34375 -0.203125 C -7.34375 -0.203125 -7.34375 -1.1875 -7.34375 -1.1875 C -7.34375 -1.1875 -9.359375 -1.1875 -9.359375 -1.1875 C -9.359375 -1.1875 -9.359375 -2.359375 -9.359375 -2.359375 C -9.359375 -2.359375 -7.34375 -2.359375 -7.34375 -2.359375 C -7.34375 -2.359375 -7.34375 -3.5625 -7.34375 -3.5625 C -7.34375 -3.5625 -6.390625 -3.5625 -6.390625 -3.5625 C -6.390625 -3.5625 -6.390625 -2.359375 -6.390625 -2.359375 C -6.390625 -2.359375 -1.578125 -2.359375 -1.578125 -2.359375 C -1.0625 -2.359375 -0.921875 -2.484375 -0.921875 -3 C -0.921875 -3.21875 -0.9375 -3.40625 -0.984375 -3.5625 C -0.984375 -3.5625 0 -3.5625 0 -3.5625 Z M 0 -3.5625 "/>
</g>
<g id="glyph-6-1-ea1db8db">
</g>
<g id="glyph-7-0-ea1db8db">
<path d="M -3.609375 -7.140625 C -1.203125 -7.140625 0.203125 -5.875 0.203125 -3.828125 C 0.203125 -1.734375 -1.203125 -0.5 -3.671875 -0.5 C -6.125 -0.5 -7.546875 -1.75 -7.546875 -3.8125 C -7.546875 -5.921875 -6.140625 -7.140625 -3.609375 -7.140625 Z M -3.625 -5.921875 C -5.453125 -5.921875 -6.46875 -5.140625 -6.46875 -3.828125 C -6.46875 -2.515625 -5.4375 -1.71875 -3.671875 -1.71875 C -1.890625 -1.71875 -0.875 -2.515625 -0.875 -3.828125 C -0.875 -5.109375 -1.90625 -5.921875 -3.625 -5.921875 Z M -3.625 -5.921875 "/>
</g>
<g id="glyph-8-0-ea1db8db">
<path d="M -6.390625 -3.609375 C -6.390625 -3.609375 -6.390625 -2.390625 -6.390625 -2.390625 C -6.390625 -2.390625 0 -2.390625 0 -2.390625 C 0 -2.390625 0 -1.234375 0 -1.234375 C 0 -1.234375 -6.390625 -1.234375 -6.390625 -1.234375 C -6.390625 -1.234375 -6.390625 -0.25 -6.390625 -0.25 C -6.390625 -0.25 -7.34375 -0.25 -7.34375 -0.25 C -7.34375 -0.25 -7.34375 -1.234375 -7.34375 -1.234375 C -7.34375 -1.234375 -8.578125 -1.234375 -8.578125 -1.234375 C -9.625 -1.234375 -10.25 -1.875 -10.25 -2.953125 C -10.25 -3.1875 -10.234375 -3.34375 -10.171875 -3.609375 C -10.171875 -3.609375 -9.21875 -3.609375 -9.21875 -3.609375 C -9.21875 -3.34375 -9.21875 -3.296875 -9.21875 -3.203125 C -9.21875 -2.671875 -8.96875 -2.390625 -8.484375 -2.390625 C -8.484375 -2.390625 -7.34375 -2.390625 -7.34375 -2.390625 C -7.34375 -2.390625 -7.34375 -3.609375 -7.34375 -3.609375 C -7.34375 -3.609375 -6.390625 -3.609375 -6.390625 -3.609375 Z M -6.390625 -3.609375 "/>
</g>
<g id="glyph-8-1-ea1db8db">
</g>
<g id="glyph-9-0-ea1db8db">
<path d="M 0 -10.640625 C 0 -10.640625 0 -9.484375 0 -9.484375 C 0 -9.484375 -5.046875 -9.484375 -5.046875 -9.484375 C -5.984375 -9.484375 -6.53125 -8.984375 -6.53125 -8.140625 C -6.53125 -7.1875 -5.671875 -6.390625 -4.609375 -6.390625 C -4.609375 -6.390625 0 -6.390625 0 -6.390625 C 0 -6.390625 0 -5.234375 0 -5.234375 C 0 -5.234375 -5.046875 -5.234375 -5.046875 -5.234375 C -5.984375 -5.234375 -6.53125 -4.75 -6.53125 -3.875 C -6.53125 -2.921875 -5.671875 -2.15625 -4.609375 -2.15625 C -4.609375 -2.15625 0 -2.15625 0 -2.15625 C 0 -2.15625 0 -1 0 -1 C 0 -1 -7.34375 -1 -7.34375 -1 C -7.34375 -1 -7.34375 -2.0625 -7.34375 -2.0625 C -7.34375 -2.0625 -6.296875 -2.0625 -6.296875 -2.0625 C -7.1875 -2.6875 -7.546875 -3.328125 -7.546875 -4.3125 C -7.546875 -5.265625 -7.203125 -5.859375 -6.421875 -6.28125 C -7.25 -6.96875 -7.546875 -7.5625 -7.546875 -8.546875 C -7.546875 -9.90625 -6.8125 -10.640625 -5.5 -10.640625 C -5.5 -10.640625 0 -10.640625 0 -10.640625 Z M 0 -10.640625 "/>
</g>
<g id="glyph-9-1-ea1db8db">
<path d="M -0.03125 -7.484375 C 0.0625 -7.109375 0.09375 -6.9375 0.09375 -6.6875 C 0.09375 -6.125 -0.3125 -5.609375 -0.875 -5.484375 C -0.1875 -4.84375 0.203125 -3.9375 0.203125 -3 C 0.203125 -1.515625 -0.578125 -0.59375 -1.90625 -0.59375 C -2.796875 -0.59375 -3.453125 -1.015625 -3.8125 -1.875 C -3.984375 -2.328125 -4.046875 -2.578125 -4.25 -4.234375 C -4.375 -5.15625 -4.578125 -5.453125 -5.0625 -5.453125 C -5.0625 -5.453125 -5.375 -5.453125 -5.375 -5.453125 C -6.078125 -5.453125 -6.46875 -4.859375 -6.46875 -3.8125 C -6.46875 -2.71875 -6.0625 -2.1875 -5.171875 -2.09375 C -5.171875 -2.09375 -5.171875 -0.90625 -5.171875 -0.90625 C -6.859375 -0.984375 -7.546875 -2.078125 -7.546875 -3.84375 C -7.546875 -5.65625 -6.84375 -6.609375 -5.546875 -6.609375 C -5.546875 -6.609375 -1.453125 -6.609375 -1.453125 -6.609375 C -1.09375 -6.609375 -0.875 -6.828125 -0.875 -7.234375 C -0.875 -7.3125 -0.875 -7.359375 -0.90625 -7.484375 C -0.90625 -7.484375 -0.03125 -7.484375 -0.03125 -7.484375 Z M -2.53125 -5.453125 C -2.53125 -5.453125 -3.625 -5.453125 -3.625 -5.453125 C -3.4375 -5.046875 -3.390625 -4.796875 -3.21875 -3.5625 C -3.03125 -2.328125 -2.703125 -1.8125 -1.9375 -1.8125 C -1.140625 -1.8125 -0.8125 -2.34375 -0.8125 -3.25 C -0.8125 -4.375 -1.484375 -5.453125 -2.53125 -5.453125 Z M -2.53125 -5.453125 "/>
</g>
<g id="glyph-9-2-ea1db8db">
<path d="M -2.0625 -6.421875 C -0.640625 -6.421875 0.203125 -5.25 0.203125 -3.40625 C 0.203125 -1.484375 -0.546875 -0.53125 -2.234375 -0.46875 C -2.234375 -0.46875 -2.234375 -1.703125 -2.234375 -1.703125 C -1.125 -1.859375 -0.875 -2.453125 -0.875 -3.5 C -0.875 -4.515625 -1.28125 -5.203125 -1.953125 -5.203125 C -2.484375 -5.203125 -2.734375 -4.890625 -2.921875 -4.078125 C -2.921875 -4.078125 -3.1875 -2.984375 -3.1875 -2.984375 C -3.609375 -1.25 -4.15625 -0.65625 -5.3125 -0.65625 C -6.65625 -0.65625 -7.546875 -1.765625 -7.546875 -3.46875 C -7.546875 -5.171875 -6.734375 -6.125 -5.296875 -6.125 C -5.296875 -6.125 -5.296875 -4.90625 -5.296875 -4.90625 C -6.0625 -4.875 -6.46875 -4.375 -6.46875 -3.4375 C -6.46875 -2.484375 -6.03125 -1.875 -5.359375 -1.875 C -4.84375 -1.875 -4.53125 -2.28125 -4.3125 -3.234375 C -4.3125 -3.234375 -4.046875 -4.359375 -4.046875 -4.359375 C -3.703125 -5.8125 -3.15625 -6.421875 -2.0625 -6.421875 Z M -2.0625 -6.421875 "/>
</g>
<g id="glyph-10-0-ea1db8db">
<path d="M 2.671875 0 C 2.671875 0 1.21875 0 1.21875 0 C 1.21875 0 1.21875 -1.453125 1.21875 -1.453125 C 1.21875 -1.453125 2.671875 -1.453125 2.671875 -1.453125 C 2.671875 -1.453125 2.671875 0 2.671875 0 Z M 2.671875 0 "/>
</g>
<g id="glyph-11-0-ea1db8db">
<path d="M 7.09375 -4.78125 C 7.09375 -1.515625 5.953125 0.203125 3.84375 0.203125 C 1.71875 0.203125 0.609375 -1.515625 0.609375 -4.859375 C 0.609375 -8.1875 1.703125 -9.921875 3.84375 -9.921875 C 6 -9.921875 7.09375 -8.21875 7.09375 -4.78125 Z M 5.84375 -4.890625 C 5.84375 -7.546875 5.1875 -8.828125 3.84375 -8.828125 C 2.515625 -8.828125 1.859375 -7.5625 1.859375 -4.84375 C 1.859375 -2.125 2.515625 -0.8125 3.828125 -0.8125 C 5.1875 -0.8125 5.84375 -2.078125 5.84375 -4.890625 Z M 5.84375 -4.890625 "/>
</g>
<g id="glyph-11-1-ea1db8db">
<path d="M 2.671875 0 C 2.671875 0 1.21875 0 1.21875 0 C 1.21875 0 1.21875 -1.453125 1.21875 -1.453125 C 1.21875 -1.453125 2.671875 -1.453125 2.671875 -1.453125 C 2.671875 -1.453125 2.671875 0 2.671875 0 Z M 2.671875 0 "/>
</g>
<g id="glyph-11-2-ea1db8db">
<path d="M 7.15625 -7.015625 C 7.15625 -5.796875 6.4375 -4.765625 5.046875 -4.015625 C 5.046875 -4.015625 3.65625 -3.265625 3.65625 -3.265625 C 2.4375 -2.546875 1.984375 -2.03125 1.859375 -1.21875 C 1.859375 -1.21875 7.078125 -1.21875 7.078125 -1.21875 C 7.078125 -1.21875 7.078125 0 7.078125 0 C 7.078125 0 0.46875 0 0.46875 0 C 0.59375 -2.1875 1.1875 -3.125 3.265625 -4.296875 C 3.265625 -4.296875 4.546875 -5.03125 4.546875 -5.03125 C 5.4375 -5.53125 5.890625 -6.203125 5.890625 -6.984375 C 5.890625 -8.046875 5.046875 -8.84375 3.9375 -8.84375 C 2.71875 -8.84375 2.03125 -8.140625 1.9375 -6.484375 C 1.9375 -6.484375 0.703125 -6.484375 0.703125 -6.484375 C 0.765625 -8.890625 1.953125 -9.921875 3.96875 -9.921875 C 5.859375 -9.921875 7.15625 -8.6875 7.15625 -7.015625 Z M 7.15625 -7.015625 "/>
</g>
</g>
</defs>
<rect x="-65" y="-30" width="780" height="360" fill="rgb(100%, 100%, 100%)" fill-opacity="1"/>
<path fill-rule="nonzero" fill="rgb(100%, 100%, 100%)" fill-opacity="1" d="M 74 241 L 634 241 L 634 16 L 74 16 Z M 74 241 "/>
<path fill="none" stroke-width="1" stroke-linecap="butt" stroke-linejoin="miter" stroke="rgb(0%, 0%, 0%)" stroke-opacity="0.12" stroke-miterlimit="1.154701" d="M 99.453125 241 L 99.453125 16 "/>
<path fill="none" stroke-width="1" stroke-linecap="butt" stroke-linejoin="miter" stroke="rgb(0%, 0%, 0%)" stroke-opacity="0.12" stroke-miterlimit="1.154701" d="M 226.726562 241 L 226.726562 16 "/>
<path fill="none" stroke-width="1" stroke-linecap="butt" stroke-linejoin="miter" stroke="rgb(0%, 0%, 0%)" stroke-opacity="0.12" stroke-miterlimit="1.154701" d="M 354 241 L 354 16 "/>
<path fill="none" stroke-width="1" stroke-linecap="butt" stroke-linejoin="miter" stroke="rgb(0%, 0%, 0%)" stroke-opacity="0.12" stroke-miterlimit="1.154701" d="M 481.273438 241 L 481.273438 16 "/>
<path fill="none" stroke-width="1" stroke-linecap="butt" stroke-linejoin="miter" stroke="rgb(0%, 0%, 0%)" stroke-opacity="0.12" stroke-miterlimit="1.154701" d="M 608.546875 241 L 608.546875 16 "/>
<path fill="none" stroke-width="1" stroke-linecap="butt" stroke-linejoin="miter" stroke="rgb(0%, 0%, 0%)" stroke-opacity="0.12" stroke-miterlimit="1.154701" d="M 74 230.78125 L 634 230.78125 "/>
<path fill="none" stroke-width="1" stroke-linecap="butt" stroke-linejoin="miter" stroke="rgb(0%, 0%, 0%)" stroke-opacity="0.12" stroke-miterlimit="1.154701" d="M 74 179.644531 L 634 179.644531 "/>
<path fill="none" stroke-width="1" stroke-linecap="butt" stroke-linejoin="miter" stroke="rgb(0%, 0%, 0%)" stroke-opacity="0.12" stroke-miterlimit="1.154701" d="M 74 128.503906 L 634 128.503906 "/>
<path fill="none" stroke-width="1" stroke-linecap="butt" stroke-linejoin="miter" stroke="rgb(0%, 0%, 0%)" stroke-opacity="0.12" stroke-miterlimit="1.154701" d="M 74 77.367188 L 634 77.367188 "/>
<path fill="none" stroke-width="1" stroke-linecap="butt" stroke-linejoin="miter" stroke="rgb(0%, 0%, 0%)" stroke-opacity="0.12" stroke-miterlimit="1.154701" d="M 74 26.226562 L 634 26.226562 "/>
<g fill="rgb(0%, 0%, 0%)" fill-opacity="1">
<use xlink:href="#glyph-0-0-ea1db8db" x="331.439001" y="281.567999"/>
<use xlink:href="#glyph-0-1-ea1db8db" x="335.331002" y="281.567999"/>
<use xlink:href="#glyph-0-2-ea1db8db" x="338.439001" y="281.567999"/>
<use xlink:href="#glyph-0-3-ea1db8db" x="350.101" y="281.567999"/>
<use xlink:href="#glyph-0-4-ea1db8db" x="357.885001" y="281.567999"/>
<use xlink:href="#glyph-0-5-ea1db8db" x="361.777001" y="281.567999"/>
<use xlink:href="#glyph-0-6-ea1db8db" x="365.669001" y="281.567999"/>
<use xlink:href="#glyph-0-7-ea1db8db" x="372.669001" y="281.567999"/>
</g>
<g fill="rgb(0%, 0%, 0%)" fill-opacity="1">
<use xlink:href="#glyph-0-8-ea1db8db" x="95.562544" y="262.257999"/>
</g>
<g fill="rgb(0%, 0%, 0%)" fill-opacity="1">
<use xlink:href="#glyph-0-9-ea1db8db" x="222.83528" y="262.257999"/>
</g>
<g fill="rgb(0%, 0%, 0%)" fill-opacity="1">
<use xlink:href="#glyph-0-10-ea1db8db" x="346.216" y="262.257999"/>
<use xlink:href="#glyph-0-8-ea1db8db" x="354" y="262.257999"/>
</g>
<g fill="rgb(0%, 0%, 0%)" fill-opacity="1">
<use xlink:href="#glyph-0-10-ea1db8db" x="473.488736" y="262.257999"/>
<use xlink:href="#glyph-0-9-ea1db8db" x="481.272736" y="262.257999"/>
</g>
<g fill="rgb(0%, 0%, 0%)" fill-opacity="1">
<use xlink:href="#glyph-0-11-ea1db8db" x="600.761472" y="262.257999"/>
<use xlink:href="#glyph-0-8-ea1db8db" x="608.545472" y="262.257999"/>
</g>
<g fill="rgb(0%, 0%, 0%)" fill-opacity="1">
<use xlink:href="#glyph-1-0-ea1db8db" x="28.311994" y="213.696974"/>
</g>
<g fill="rgb(0%, 0%, 0%)" fill-opacity="1">
<use xlink:href="#glyph-2-0-ea1db8db" x="28.311994" y="205.912977"/>
<use xlink:href="#glyph-2-1-ea1db8db" x="28.311994" y="202.804975"/>
</g>
<g fill="rgb(0%, 0%, 0%)" fill-opacity="1">
<use xlink:href="#glyph-3-0-ea1db8db" x="28.311995" y="195.804975"/>
<use xlink:href="#glyph-3-1-ea1db8db" x="28.311995" y="188.020974"/>
<use xlink:href="#glyph-3-2-ea1db8db" x="28.311995" y="184.912976"/>
<use xlink:href="#glyph-3-3-ea1db8db" x="28.311996" y="177.128976"/>
<use xlink:href="#glyph-3-4-ea1db8db" x="28.311996" y="170.128976"/>
</g>
<g fill="rgb(0%, 0%, 0%)" fill-opacity="1">
<use xlink:href="#glyph-4-0-ea1db8db" x="28.311997" y="162.344975"/>
</g>
<g fill="rgb(0%, 0%, 0%)" fill-opacity="1">
<use xlink:href="#glyph-3-4-ea1db8db" x="28.311997" y="150.682978"/>
</g>
<g fill="rgb(0%, 0%, 0%)" fill-opacity="1">
<use xlink:href="#glyph-5-0-ea1db8db" x="28.311998" y="142.898982"/>
</g>
<g fill="rgb(0%, 0%, 0%)" fill-opacity="1">
<use xlink:href="#glyph-6-0-ea1db8db" x="28.311998" y="135.114986"/>
<use xlink:href="#glyph-6-1-ea1db8db" x="28.311998" y="131.222987"/>
</g>
<g fill="rgb(0%, 0%, 0%)" fill-opacity="1">
<use xlink:href="#glyph-7-0-ea1db8db" x="28.311999" y="127.330989"/>
</g>
<g fill="rgb(0%, 0%, 0%)" fill-opacity="1">
<use xlink:href="#glyph-8-0-ea1db8db" x="28.311999" y="119.546994"/>
<use xlink:href="#glyph-8-1-ea1db8db" x="28.311999" y="115.654995"/>
</g>
<g fill="rgb(0%, 0%, 0%)" fill-opacity="1">
<use xlink:href="#glyph-9-0-ea1db8db" x="28.312" y="111.762998"/>
<use xlink:href="#glyph-9-1-ea1db8db" x="28.312" y="100.100995"/>
<use xlink:href="#glyph-9-2-ea1db8db" x="28.312001" y="92.317"/>
</g>
<g fill="rgb(0%, 0%, 0%)" fill-opacity="1">
<use xlink:href="#glyph-1-1-ea1db8db" x="28.312001" y="85.317008"/>
</g>
<g fill="rgb(0%, 0%, 0%)" fill-opacity="1">
<use xlink:href="#glyph-2-2-ea1db8db" x="28.312002" y="78.317007"/>
<use xlink:href="#glyph-2-3-ea1db8db" x="28.312002" y="74.425009"/>
</g>
<g fill="rgb(0%, 0%, 0%)" fill-opacity="1">
<use xlink:href="#glyph-3-5-ea1db8db" x="28.312002" y="66.641012"/>
<use xlink:href="#glyph-3-6-ea1db8db" x="28.312002" y="62.749018"/>
<use xlink:href="#glyph-3-7-ea1db8db" x="28.312003" y="58.857019"/>
<use xlink:href="#glyph-3-8-ea1db8db" x="28.312003" y="47.195016"/>
</g>
<g fill="rgb(0%, 0%, 0%)" fill-opacity="1">
<use xlink:href="#glyph-0-12-ea1db8db" x="36.364" y="235.884874"/>
<use xlink:href="#glyph-0-8-ea1db8db" x="44.540001" y="235.884874"/>
</g>
<g fill="rgb(0%, 0%, 0%)" fill-opacity="1">
<use xlink:href="#glyph-10-0-ea1db8db" x="52.323999" y="235.884874"/>
</g>
<g fill="rgb(0%, 0%, 0%)" fill-opacity="1">
<use xlink:href="#glyph-0-11-ea1db8db" x="56.216" y="235.884874"/>
</g>
<g fill="rgb(0%, 0%, 0%)" fill-opacity="1">
<use xlink:href="#glyph-0-12-ea1db8db" x="36.364" y="184.746216"/>
<use xlink:href="#glyph-0-8-ea1db8db" x="44.540001" y="184.746216"/>
</g>
<g fill="rgb(0%, 0%, 0%)" fill-opacity="1">
<use xlink:href="#glyph-10-0-ea1db8db" x="52.323999" y="184.746216"/>
</g>
<g fill="rgb(0%, 0%, 0%)" fill-opacity="1">
<use xlink:href="#glyph-0-10-ea1db8db" x="56.216" y="184.746216"/>
</g>
<g fill="rgb(0%, 0%, 0%)" fill-opacity="1">
<use xlink:href="#glyph-0-8-ea1db8db" x="44.540001" y="133.607574"/>
<use xlink:href="#glyph-0-13-ea1db8db" x="52.324001" y="133.607574"/>
<use xlink:href="#glyph-0-8-ea1db8db" x="56.216001" y="133.607574"/>
</g>
<g fill="rgb(0%, 0%, 0%)" fill-opacity="1">
<use xlink:href="#glyph-0-8-ea1db8db" x="44.540001" y="82.468916"/>
<use xlink:href="#glyph-0-13-ea1db8db" x="52.324001" y="82.468916"/>
<use xlink:href="#glyph-0-10-ea1db8db" x="56.216001" y="82.468916"/>
</g>
<g fill="rgb(0%, 0%, 0%)" fill-opacity="1">
<use xlink:href="#glyph-11-0-ea1db8db" x="44.540001" y="31.330258"/>
<use xlink:href="#glyph-11-1-ea1db8db" x="52.324001" y="31.330258"/>
<use xlink:href="#glyph-11-2-ea1db8db" x="56.216001" y="31.330258"/>
</g>
<path fill="none" stroke-width="1.5" stroke-linecap="butt" stroke-linejoin="miter" stroke="rgb(0%, 44.705883%, 69.803923%)" stroke-opacity="1" stroke-miterlimit="2" d="M 99.453125 26.226562 L 99.585938 26.230469 L 99.835938 26.246094 L 100.132812 26.289062 L 100.5 26.371094 L 100.921875 26.511719 L 101.398438 26.722656 L 101.921875 27.027344 L 102.488281 27.433594 L 103.089844 27.960938 L 103.722656 28.609375 L 104.382812 29.398438 L 105.0625 30.328125 L 105.761719 31.40625 L 106.480469 32.632812 L 107.210938 34.011719 L 107.957031 35.546875 L 108.710938 37.234375 L 109.476562 39.078125 L 110.25 41.074219 L 111.035156 43.226562 L 111.824219 45.527344 L 112.625 47.984375 L 113.433594 50.589844 L 114.253906 53.347656 L 115.078125 56.25 L 115.914062 59.304688 L 116.761719 62.5 L 117.617188 65.84375 L 118.484375 69.332031 L 119.363281 72.964844 L 120.253906 76.734375 L 121.160156 80.648438 L 122.082031 84.695312 L 123.019531 88.878906 L 123.972656 93.179688 L 124.9375 97.59375 L 125.914062 102.09375 L 126.902344 106.644531 L 127.890625 111.210938 L 128.875 115.761719 L 129.851562 120.253906 L 130.820312 124.667969 L 131.777344 128.984375 L 132.722656 133.1875 L 133.652344 137.265625 L 134.566406 141.214844 L 135.472656 145.023438 L 136.363281 148.695312 L 137.242188 152.222656 L 138.109375 155.609375 L 138.96875 158.847656 L 139.8125 161.945312 L 140.652344 164.898438 L 141.480469 167.710938 L 142.296875 170.378906 L 143.109375 172.902344 L 143.917969 175.289062 L 144.714844 177.535156 L 145.507812 179.644531 L 146.292969 181.613281 L 147.078125 183.453125 L 147.859375 185.160156 L 148.636719 186.738281 L 149.414062 188.183594 L 150.1875 189.5 L 150.964844 190.691406 L 151.738281 191.75 L 152.511719 192.683594 L 153.289062 193.488281 L 154.066406 194.164062 L 154.84375 194.710938 L 155.625 195.132812 L 156.40625 195.425781 L 157.191406 195.589844 L 157.980469 195.632812 L 158.773438 195.546875 L 159.566406 195.335938 L 160.367188 195 L 161.167969 194.542969 L 161.980469 193.960938 L 162.792969 193.257812 L 163.617188 192.433594 L 164.445312 191.488281 L 165.28125 190.421875 L 166.125 189.238281 L 166.980469 187.941406 L 167.839844 186.523438 L 168.714844 184.996094 L 169.601562 183.355469 L 170.496094 181.601562 L 171.40625 179.742188 L 172.332031 177.78125 L 173.269531 175.71875 L 174.222656 173.566406 L 175.1875 171.328125 L 176.160156 169.027344 L 177.140625 166.679688 L 179.101562 161.921875 L 180.070312 159.550781 L 181.035156 157.214844 L 181.988281 154.921875 L 182.925781 152.6875 L 183.855469 150.515625 L 184.769531 148.414062 L 185.671875 146.386719 L 186.566406 144.441406 L 187.445312 142.582031 L 188.3125 140.808594 L 189.171875 139.125 L 190.019531 137.527344 L 190.859375 136.023438 L 191.6875 134.609375 L 192.511719 133.289062 L 193.328125 132.058594 L 194.136719 130.917969 L 194.9375 129.871094 L 195.734375 128.917969 L 196.523438 128.054688 L 197.308594 127.28125 L 198.089844 126.59375 L 198.863281 126 L 199.636719 125.492188 L 200.40625 125.070312 L 201.175781 124.734375 L 201.949219 124.484375 L 202.71875 124.316406 L 203.488281 124.234375 L 204.261719 124.234375 L 205.035156 124.316406 L 205.808594 124.484375 L 206.585938 124.730469 L 207.371094 125.058594 L 208.152344 125.464844 L 208.941406 125.953125 L 209.734375 126.515625 L 210.535156 127.15625 L 211.335938 127.867188 L 212.144531 128.65625 L 212.960938 129.511719 L 213.78125 130.4375 L 214.609375 131.433594 L 215.445312 132.488281 L 216.289062 133.605469 L 217.144531 134.785156 L 218.007812 136.015625 L 218.878906 137.296875 L 219.765625 138.628906 L 220.664062 140 L 221.574219 141.410156 L 222.5 142.851562 L 223.441406 144.316406 L 224.394531 145.796875 L 225.363281 147.28125 L 226.339844 148.753906 L 227.324219 150.195312 L 228.3125 151.59375 L 229.292969 152.933594 L 230.269531 154.195312 L 231.238281 155.367188 L 232.191406 156.449219 L 233.136719 157.429688 L 234.066406 158.304688 L 234.984375 159.074219 L 235.890625 159.730469 L 236.785156 160.277344 L 237.667969 160.710938 L 238.539062 161.03125 L 239.398438 161.238281 L 240.25 161.335938 L 241.09375 161.320312 L 241.925781 161.191406 L 242.753906 160.957031 L 243.570312 160.609375 L 244.382812 160.15625 L 245.191406 159.59375 L 245.992188 158.925781 L 246.789062 158.152344 L 247.582031 157.273438 L 248.371094 156.292969 L 249.152344 155.210938 L 249.933594 154.027344 L 250.714844 152.742188 L 251.488281 151.363281 L 252.261719 149.890625 L 253.035156 148.320312 L 253.804688 146.660156 L 254.574219 144.90625 L 255.34375 143.0625 L 256.117188 141.121094 L 256.894531 139.089844 L 257.671875 136.96875 L 258.453125 134.753906 L 259.238281 132.453125 L 260.027344 130.066406 L 260.820312 127.59375 L 261.621094 125.035156 L 262.425781 122.398438 L 263.238281 119.679688 L 264.054688 116.882812 L 264.882812 114.011719 L 265.714844 111.070312 L 266.558594 108.058594 L 267.410156 104.980469 L 268.273438 101.84375 L 269.148438 98.644531 L 270.035156 95.390625 L 270.933594 92.089844 L 271.847656 88.742188 L 272.777344 85.363281 L 273.722656 81.953125 L 274.683594 78.535156 L 275.65625 75.125 L 276.640625 71.746094 L 277.628906 68.433594 L 278.621094 65.210938 L 279.605469 62.113281 L 280.582031 59.15625 L 281.550781 56.359375 L 282.503906 53.730469 L 283.445312 51.273438 L 284.375 48.996094 L 285.289062 46.898438 L 286.195312 44.980469 L 287.085938 43.242188 L 287.960938 41.683594 L 288.832031 40.300781 L 289.6875 39.09375 L 290.535156 38.058594 L 291.375 37.195312 L 292.203125 36.496094 L 293.027344 35.96875 L 293.84375 35.601562 L 294.652344 35.398438 L 295.453125 35.355469 L 296.25 35.46875 L 297.042969 35.738281 L 297.828125 36.160156 L 298.613281 36.738281 L 299.394531 37.460938 L 300.171875 38.335938 L 300.949219 39.355469 L 301.71875 40.519531 L 302.492188 41.828125 L 303.261719 43.277344 L 304.03125 44.867188 L 304.800781 46.597656 L 305.570312 48.472656 L 306.34375 50.484375 L 307.121094 52.636719 L 307.898438 54.925781 L 308.683594 57.355469 L 309.46875 59.925781 L 310.257812 62.628906 L 311.054688 65.46875 L 311.851562 68.445312 L 312.660156 71.554688 L 313.472656 74.796875 L 314.289062 78.171875 L 315.117188 81.675781 L 315.949219 85.308594 L 316.792969 89.066406 L 317.644531 92.949219 L 318.507812 96.960938 L 319.382812 101.089844 L 320.269531 105.339844 L 321.167969 109.707031 L 322.082031 114.1875 L 323.007812 118.777344 L 323.949219 123.464844 L 324.90625 128.234375 L 325.878906 133.070312 L 326.855469 137.9375 L 327.839844 142.796875 L 328.824219 147.613281 L 329.800781 152.351562 L 330.773438 156.984375 L 331.730469 161.484375 L 332.679688 165.839844 L 333.613281 170.042969 L 334.535156 174.078125 L 335.441406 177.945312 L 336.339844 181.644531 L 337.222656 185.167969 L 338.09375 188.519531 L 338.957031 191.699219 L 339.808594 194.707031 L 340.648438 197.542969 L 341.480469 200.210938 L 342.304688 202.707031 L 343.121094 205.039062 L 343.929688 207.207031 L 344.734375 209.210938 L 345.53125 211.054688 L 346.320312 212.734375 L 347.105469 214.257812 L 347.886719 215.628906 L 348.664062 216.839844 L 349.441406 217.90625 L 350.214844 218.816406 L 350.988281 219.578125 L 351.761719 220.191406 L 352.53125 220.65625 L 353.304688 220.972656 L 354.078125 221.140625 L 354.851562 221.164062 L 355.628906 221.035156 L 356.40625 220.761719 L 357.1875 220.34375 L 357.96875 219.777344 L 358.757812 219.066406 L 359.546875 218.207031 L 360.34375 217.207031 L 361.140625 216.058594 L 361.949219 214.765625 L 362.757812 213.328125 L 363.574219 211.75 L 364.398438 210.027344 L 365.230469 208.164062 L 366.066406 206.160156 L 366.914062 204.015625 L 367.769531 201.730469 L 368.636719 199.308594 L 369.515625 196.746094 L 370.40625 194.050781 L 371.304688 191.222656 L 372.222656 188.261719 L 373.152344 185.171875 L 374.09375 181.964844 L 375.050781 178.644531 L 376.015625 175.230469 L 376.992188 171.742188 L 377.972656 168.210938 L 378.949219 164.65625 L 379.925781 161.113281 L 380.890625 157.597656 L 381.847656 154.136719 L 382.792969 150.742188 L 383.722656 147.421875 L 384.644531 144.191406 L 385.550781 141.054688 L 386.445312 138.015625 L 387.328125 135.078125 L 388.199219 132.25 L 389.0625 129.53125 L 389.914062 126.917969 L 390.753906 124.417969 L 391.585938 122.027344 L 392.410156 119.75 L 393.226562 117.582031 L 394.035156 115.527344 L 394.839844 113.582031 L 395.632812 111.75 L 396.425781 110.023438 L 397.210938 108.410156 L 397.988281 106.90625 L 398.765625 105.503906 L 399.542969 104.203125 L 400.316406 103.007812 L 401.089844 101.917969 L 401.863281 100.925781 L 402.640625 100.039062 L 403.414062 99.257812 L 404.1875 98.574219 L 404.964844 97.992188 L 405.746094 97.511719 L 406.527344 97.132812 L 407.308594 96.855469 L 408.097656 96.675781 L 408.886719 96.597656 L 409.679688 96.617188 L 410.476562 96.730469 L 411.277344 96.941406 L 412.085938 97.25 L 412.898438 97.648438 L 413.714844 98.140625 L 414.542969 98.722656 L 415.375 99.394531 L 416.214844 100.152344 L 417.066406 100.996094 L 417.925781 101.925781 L 418.796875 102.929688 L 419.675781 104.015625 L 420.570312 105.175781 L 421.476562 106.410156 L 422.394531 107.707031 L 423.332031 109.070312 L 424.28125 110.488281 L 425.246094 111.953125 L 426.222656 113.457031 L 427.207031 114.980469 L 428.195312 116.507812 L 429.183594 118.019531 L 430.167969 119.503906 L 431.140625 120.941406 L 432.105469 122.324219 L 433.058594 123.640625 L 433.996094 124.886719 L 434.921875 126.054688 L 435.835938 127.140625 L 436.734375 128.144531 L 437.625 129.058594 L 438.5 129.886719 L 439.367188 130.621094 L 440.222656 131.269531 L 441.066406 131.824219 L 441.90625 132.285156 L 442.734375 132.65625 L 443.554688 132.9375 L 444.367188 133.128906 L 445.175781 133.226562 L 445.976562 133.234375 L 446.769531 133.15625 L 447.5625 132.988281 L 448.347656 132.730469 L 449.128906 132.390625 L 449.90625 131.960938 L 450.679688 131.449219 L 451.453125 130.855469 L 452.222656 130.179688 L 452.988281 129.421875 L 453.757812 128.578125 L 454.527344 127.65625 L 455.296875 126.65625 L 456.070312 125.574219 L 456.847656 124.410156 L 457.625 123.171875 L 458.40625 121.855469 L 459.191406 120.464844 L 459.980469 119 L 460.773438 117.460938 L 461.574219 115.851562 L 462.378906 114.171875 L 463.191406 112.425781 L 464.007812 110.617188 L 464.832031 108.746094 L 465.664062 106.8125 L 466.507812 104.828125 L 467.355469 102.789062 L 468.21875 100.699219 L 469.089844 98.566406 L 469.972656 96.390625 L 470.867188 94.183594 L 471.777344 91.941406 L 472.699219 89.679688 L 473.640625 87.398438 L 474.59375 85.117188 L 475.5625 82.84375 L 476.546875 80.601562 L 477.535156 78.410156 L 478.523438 76.292969 L 479.511719 74.269531 L 480.496094 72.363281 L 481.46875 70.582031 L 482.429688 68.9375 L 483.375 67.433594 L 484.3125 66.074219 L 485.234375 64.867188 L 486.144531 63.808594 L 487.039062 62.898438 L 487.925781 62.140625 L 488.800781 61.527344 L 489.660156 61.0625 L 490.515625 60.746094 L 491.359375 60.570312 L 492.195312 60.539062 L 493.019531 60.644531 L 493.839844 60.894531 L 494.65625 61.277344 L 495.460938 61.800781 L 496.265625 62.457031 L 497.0625 63.246094 L 497.855469 64.167969 L 498.644531 65.21875 L 499.429688 66.398438 L 500.214844 67.703125 L 500.992188 69.136719 L 501.769531 70.691406 L 502.546875 72.367188 L 503.320312 74.160156 L 504.089844 76.074219 L 504.863281 78.101562 L 505.632812 80.246094 L 506.40625 82.503906 L 507.179688 84.882812 L 507.957031 87.375 L 508.738281 89.980469 L 509.519531 92.699219 L 510.308594 95.535156 L 511.101562 98.476562 L 511.898438 101.53125 L 512.699219 104.695312 L 513.507812 107.960938 L 514.324219 111.335938 L 515.144531 114.8125 L 515.972656 118.386719 L 516.8125 122.0625 L 517.660156 125.832031 L 518.515625 129.695312 L 519.386719 133.648438 L 520.265625 137.6875 L 521.15625 141.808594 L 522.0625 146.003906 L 522.980469 150.273438 L 523.914062 154.605469 L 524.863281 158.984375 L 525.824219 163.394531 L 526.796875 167.804688 L 527.777344 172.1875 L 528.757812 176.507812 L 529.734375 180.734375 L 530.707031 184.832031 L 531.667969 188.789062 L 532.621094 192.582031 L 533.558594 196.203125 L 534.484375 199.648438 L 535.402344 202.90625 L 536.304688 205.980469 L 537.195312 208.867188 L 538.070312 211.566406 L 538.941406 214.082031 L 539.796875 216.414062 L 540.644531 218.558594 L 541.484375 220.527344 L 542.3125 222.3125 L 543.136719 223.921875 L 543.953125 225.355469 L 544.761719 226.617188 L 545.5625 227.707031 L 546.359375 228.628906 L 547.148438 229.382812 L 547.933594 229.972656 L 548.714844 230.402344 L 549.496094 230.667969 L 550.269531 230.773438 L 551.039062 230.722656 L 551.808594 230.515625 L 552.574219 230.15625 L 553.34375 229.640625 L 554.113281 228.972656 L 554.882812 228.152344 L 555.65625 227.179688 L 556.429688 226.050781 L 557.207031 224.773438 L 557.984375 223.339844 L 558.765625 221.757812 L 559.554688 220.023438 L 560.34375 218.140625 L 561.140625 216.105469 L 561.9375 213.921875 L 562.746094 211.589844 L 563.554688 209.109375 L 564.375 206.480469 L 565.199219 203.707031 L 566.03125 200.785156 L 566.871094 197.722656 L 567.722656 194.515625 L 568.582031 191.164062 L 569.449219 187.675781 L 570.332031 184.042969 L 571.226562 180.273438 L 572.132812 176.367188 L 573.054688 172.332031 L 573.988281 168.167969 L 574.9375 163.886719 L 575.902344 159.507812 L 576.875 155.050781 L 577.851562 150.546875 L 578.832031 146.03125 L 579.8125 141.535156 L 580.78125 137.09375 L 581.746094 132.730469 L 582.695312 128.460938 L 583.632812 124.300781 L 584.558594 120.261719 L 585.472656 116.347656 L 586.371094 112.570312 L 587.261719 108.929688 L 588.136719 105.425781 L 589 102.066406 L 589.855469 98.847656 L 590.703125 95.769531 L 591.535156 92.835938 L 592.363281 90.039062 L 593.183594 87.386719 L 593.992188 84.875 L 594.796875 82.5 L 595.597656 80.265625 L 596.386719 78.167969 L 597.175781 76.207031 L 597.957031 74.375 L 598.738281 72.675781 L 599.515625 71.105469 L 600.292969 69.664062 L 601.066406 68.351562 L 601.84375 67.164062 L 602.617188 66.105469 L 603.390625 65.175781 L 604.167969 64.375 L 604.945312 63.699219 L 605.726562 63.152344 L 606.503906 62.730469 L 607.289062 62.4375 L 608.074219 62.269531 L 608.546875 62.230469 "/>
<path fill="none" stroke-width="1.5" stroke-linecap="butt" stroke-linejoin="miter" stroke="rgb(90.196079%, 62.352943%, 0%)" stroke-opacity="1" stroke-dasharray="4.5 4.5" stroke-miterlimit="2" d="M 99.453125 26.226562 L 99.59375 26.230469 L 99.859375 26.238281 L 100.183594 26.261719 L 100.582031 26.3125 L 101.039062 26.390625 L 101.554688 26.515625 L 102.125 26.695312 L 102.738281 26.933594 L 103.394531 27.246094 L 104.082031 27.628906 L 104.800781 28.097656 L 105.542969 28.648438 L 106.308594 29.289062 L 107.089844 30.019531 L 107.886719 30.84375 L 108.699219 31.757812 L 109.523438 32.769531 L 110.359375 33.875 L 111.207031 35.078125 L 112.0625 36.375 L 112.929688 37.765625 L 113.804688 39.253906 L 114.6875 40.835938 L 115.582031 42.519531 L 116.488281 44.296875 L 117.402344 46.167969 L 118.328125 48.140625 L 119.269531 50.210938 L 120.21875 52.382812 L 121.1875 54.652344 L 122.167969 57.023438 L 123.164062 59.496094 L 124.179688 62.074219 L 125.210938 64.753906 L 126.257812 67.53125 L 127.324219 70.398438 L 128.402344 73.339844 L 129.484375 76.335938 L 130.570312 79.359375 L 131.648438 82.390625 L 132.714844 85.410156 L 133.769531 88.402344 L 134.808594 91.355469 L 135.835938 94.261719 L 136.84375 97.117188 L 137.839844 99.917969 L 138.820312 102.65625 L 139.785156 105.335938 L 140.738281 107.957031 L 141.675781 110.511719 L 142.605469 113.007812 L 143.519531 115.4375 L 144.425781 117.808594 L 145.324219 120.117188 L 146.210938 122.363281 L 147.089844 124.546875 L 147.960938 126.675781 L 148.824219 128.742188 L 149.679688 130.746094 L 150.53125 132.695312 L 151.382812 134.59375 L 152.226562 136.441406 L 153.074219 138.234375 L 153.917969 139.980469 L 154.761719 141.679688 L 155.605469 143.328125 L 156.449219 144.929688 L 157.296875 146.484375 L 158.144531 147.988281 L 158.996094 149.449219 L 159.851562 150.859375 L 160.707031 152.222656 L 161.566406 153.542969 L 162.433594 154.8125 L 163.300781 156.039062 L 164.175781 157.21875 L 165.058594 158.351562 L 165.941406 159.441406 L 166.835938 160.488281 L 167.734375 161.488281 L 168.640625 162.445312 L 169.558594 163.363281 L 170.480469 164.238281 L 171.414062 165.074219 L 172.359375 165.871094 L 173.316406 166.628906 L 174.285156 167.351562 L 175.265625 168.039062 L 176.261719 168.691406 L 177.273438 169.3125 L 178.296875 169.902344 L 179.339844 170.464844 L 180.394531 171 L 181.464844 171.507812 L 182.539062 171.992188 L 183.613281 172.453125 L 184.691406 172.890625 L 185.757812 173.308594 L 186.816406 173.710938 L 187.863281 174.097656 L 188.898438 174.472656 L 189.917969 174.84375 L 190.925781 175.210938 L 191.917969 175.574219 L 192.898438 175.9375 L 193.867188 176.304688 L 194.820312 176.679688 L 195.765625 177.058594 L 196.699219 177.445312 L 197.621094 177.839844 L 198.53125 178.246094 L 199.4375 178.664062 L 200.332031 179.09375 L 201.21875 179.535156 L 202.097656 179.988281 L 202.972656 180.457031 L 203.839844 180.941406 L 204.699219 181.4375 L 205.554688 181.945312 L 206.40625 182.46875 L 207.253906 183.003906 L 208.097656 183.554688 L 208.9375 184.117188 L 209.773438 184.695312 L 210.613281 185.289062 L 211.453125 185.894531 L 212.292969 186.511719 L 213.136719 187.144531 L 213.980469 187.792969 L 214.828125 188.449219 L 215.679688 189.121094 L 216.539062 189.800781 L 217.398438 190.492188 L 218.265625 191.191406 L 219.136719 191.898438 L 220.015625 192.613281 L 220.898438 193.332031 L 221.792969 194.050781 L 222.691406 194.773438 L 223.601562 195.492188 L 224.519531 196.210938 L 225.445312 196.921875 L 226.386719 197.621094 L 227.335938 198.3125 L 228.296875 198.988281 L 229.273438 199.640625 L 230.265625 200.273438 L 231.273438 200.878906 L 232.292969 201.449219 L 233.332031 201.980469 L 234.382812 202.464844 L 235.449219 202.890625 L 236.519531 203.257812 L 237.59375 203.550781 L 238.667969 203.773438 L 239.734375 203.910156 L 240.792969 203.964844 L 241.839844 203.9375 L 242.871094 203.820312 L 243.890625 203.621094 L 244.894531 203.335938 L 245.886719 202.964844 L 246.867188 202.515625 L 247.832031 201.980469 L 248.789062 201.367188 L 249.730469 200.671875 L 250.664062 199.898438 L 251.585938 199.046875 L 252.5 198.121094 L 253.40625 197.121094 L 254.300781 196.042969 L 255.191406 194.894531 L 256.074219 193.671875 L 256.949219 192.382812 L 257.820312 191.019531 L 258.683594 189.589844 L 259.546875 188.089844 L 260.402344 186.523438 L 261.253906 184.890625 L 262.101562 183.195312 L 262.945312 181.433594 L 263.789062 179.609375 L 264.628906 177.726562 L 265.464844 175.78125 L 266.304688 173.765625 L 267.144531 171.691406 L 267.988281 169.546875 L 268.832031 167.335938 L 269.679688 165.058594 L 270.53125 162.714844 L 271.390625 160.304688 L 272.25 157.828125 L 273.117188 155.28125 L 273.992188 152.671875 L 274.871094 149.996094 L 275.761719 147.253906 L 276.65625 144.445312 L 277.558594 141.570312 L 278.476562 138.628906 L 279.398438 135.625 L 280.335938 132.554688 L 281.285156 129.417969 L 282.246094 126.214844 L 283.222656 122.949219 L 284.214844 119.621094 L 285.226562 116.230469 L 286.253906 112.777344 L 287.296875 109.277344 L 288.359375 105.738281 L 289.429688 102.179688 L 290.507812 98.625 L 291.589844 95.109375 L 292.664062 91.65625 L 293.726562 88.277344 L 294.78125 84.996094 L 295.820312 81.816406 L 296.84375 78.746094 L 297.851562 75.789062 L 298.847656 72.945312 L 299.828125 70.21875 L 300.792969 67.601562 L 301.746094 65.097656 L 302.6875 62.707031 L 303.617188 60.425781 L 304.535156 58.253906 L 305.441406 56.1875 L 306.339844 54.226562 L 307.230469 52.367188 L 308.113281 50.609375 L 308.988281 48.953125 L 309.855469 47.394531 L 310.714844 45.933594 L 311.570312 44.566406 L 312.421875 43.292969 L 313.265625 42.113281 L 314.109375 41.019531 L 314.953125 40.015625 L 315.792969 39.097656 L 316.632812 38.269531 L 317.476562 37.523438 L 318.316406 36.867188 L 319.160156 36.296875 L 320.007812 35.808594 L 320.855469 35.410156 L 321.707031 35.09375 L 322.5625 34.867188 L 323.421875 34.726562 L 324.285156 34.671875 L 325.152344 34.703125 L 326.023438 34.820312 L 326.902344 35.027344 L 327.789062 35.320312 L 328.679688 35.699219 L 329.578125 36.167969 L 330.484375 36.722656 L 331.398438 37.367188 L 332.324219 38.097656 L 333.257812 38.917969 L 334.203125 39.828125 L 335.164062 40.832031 L 336.136719 41.921875 L 337.121094 43.105469 L 338.125 44.382812 L 339.144531 45.75 L 340.179688 47.214844 L 341.234375 48.765625 L 342.304688 50.402344 L 343.382812 52.117188 L 344.472656 53.894531 L 345.558594 55.71875 L 346.636719 57.574219 L 347.707031 59.449219 L 348.765625 61.332031 L 349.808594 63.210938 L 350.835938 65.078125 L 351.847656 66.929688 L 352.84375 68.761719 L 353.824219 70.574219 L 354.792969 72.355469 L 355.75 74.113281 L 356.691406 75.835938 L 357.621094 77.53125 L 358.539062 79.195312 L 359.449219 80.824219 L 360.347656 82.421875 L 361.238281 83.984375 L 362.117188 85.511719 L 362.992188 87.007812 L 363.859375 88.46875 L 364.71875 89.898438 L 365.574219 91.289062 L 366.421875 92.652344 L 367.265625 93.980469 L 368.109375 95.28125 L 368.953125 96.558594 L 369.792969 97.804688 L 370.636719 99.023438 L 371.480469 100.214844 L 372.324219 101.382812 L 373.171875 102.527344 L 374.019531 103.640625 L 374.875 104.734375 L 375.730469 105.800781 L 376.589844 106.847656 L 377.453125 107.867188 L 378.320312 108.867188 L 379.195312 109.84375 L 380.074219 110.800781 L 380.957031 111.734375 L 381.851562 112.652344 L 382.75 113.554688 L 383.65625 114.441406 L 384.574219 115.308594 L 385.496094 116.167969 L 386.433594 117.015625 L 387.378906 117.855469 L 388.335938 118.6875 L 389.304688 119.515625 L 390.289062 120.339844 L 391.289062 121.171875 L 392.304688 122.003906 L 393.332031 122.847656 L 394.378906 123.699219 L 395.441406 124.566406 L 396.511719 125.445312 L 397.589844 126.34375 L 398.671875 127.253906 L 399.75 128.175781 L 400.820312 129.113281 L 401.882812 130.0625 L 402.933594 131.027344 L 403.96875 132.007812 L 404.992188 133.003906 L 406 134.019531 L 406.992188 135.050781 L 407.976562 136.105469 L 408.945312 137.175781 L 409.902344 138.269531 L 410.847656 139.386719 L 411.78125 140.527344 L 412.707031 141.691406 L 413.621094 142.878906 L 414.527344 144.089844 L 415.425781 145.324219 L 416.316406 146.585938 L 417.199219 147.871094 L 418.074219 149.183594 L 418.945312 150.519531 L 419.808594 151.878906 L 420.671875 153.265625 L 421.527344 154.671875 L 422.375 156.105469 L 423.222656 157.558594 L 424.066406 159.039062 L 424.910156 160.535156 L 425.746094 162.058594 L 426.585938 163.605469 L 427.425781 165.175781 L 428.265625 166.769531 L 429.109375 168.394531 L 429.953125 170.039062 L 430.804688 171.710938 L 431.65625 173.40625 L 432.515625 175.125 L 433.378906 176.867188 L 434.25 178.628906 L 435.125 180.414062 L 436.007812 182.214844 L 436.894531 184.035156 L 437.792969 185.871094 L 438.699219 187.71875 L 439.613281 189.582031 L 440.539062 191.457031 L 441.476562 193.335938 L 442.425781 195.226562 L 443.386719 197.113281 L 444.363281 199.003906 L 445.351562 200.886719 L 446.359375 202.765625 L 447.382812 204.625 L 448.421875 206.464844 L 449.472656 208.269531 L 450.539062 210.027344 L 451.609375 211.726562 L 452.683594 213.351562 L 453.753906 214.886719 L 454.816406 216.320312 L 455.871094 217.652344 L 456.910156 218.875 L 457.9375 219.980469 L 458.953125 220.976562 L 459.953125 221.859375 L 460.9375 222.632812 L 461.914062 223.292969 L 462.875 223.84375 L 463.820312 224.289062 L 464.757812 224.628906 L 465.6875 224.863281 L 466.601562 224.996094 L 467.511719 225.03125 L 468.410156 224.964844 L 469.300781 224.800781 L 470.183594 224.542969 L 471.0625 224.191406 L 471.929688 223.75 L 472.796875 223.210938 L 473.65625 222.585938 L 474.511719 221.875 L 475.363281 221.074219 L 476.207031 220.1875 L 477.050781 219.214844 L 477.890625 218.160156 L 478.730469 217.023438 L 479.566406 215.796875 L 480.40625 214.492188 L 481.246094 213.097656 L 482.085938 211.621094 L 482.929688 210.058594 L 483.777344 208.410156 L 484.628906 206.675781 L 485.484375 204.855469 L 486.34375 202.949219 L 487.207031 200.957031 L 488.078125 198.878906 L 488.953125 196.714844 L 489.835938 194.460938 L 490.726562 192.121094 L 491.625 189.695312 L 492.53125 187.179688 L 493.449219 184.578125 L 494.375 181.890625 L 495.3125 179.109375 L 496.265625 176.238281 L 497.226562 173.277344 L 498.207031 170.226562 L 499.199219 167.085938 L 500.210938 163.851562 L 501.238281 160.53125 L 502.28125 157.125 L 503.339844 153.652344 L 504.410156 150.125 L 505.484375 146.570312 L 506.5625 143.011719 L 507.632812 139.476562 L 508.691406 135.984375 L 509.742188 132.550781 L 510.777344 129.1875 L 511.796875 125.898438 L 512.800781 122.6875 L 513.792969 119.566406 L 514.769531 116.527344 L 515.734375 113.578125 L 516.683594 110.71875 L 517.621094 107.945312 L 518.546875 105.257812 L 519.464844 102.65625 L 520.371094 100.140625 L 521.265625 97.710938 L 522.152344 95.363281 L 523.03125 93.097656 L 523.902344 90.914062 L 524.769531 88.808594 L 525.625 86.785156 L 526.476562 84.839844 L 527.328125 82.964844 L 528.171875 81.160156 L 529.015625 79.429688 L 529.859375 77.765625 L 530.703125 76.171875 L 531.546875 74.644531 L 532.390625 73.183594 L 533.238281 71.792969 L 534.085938 70.46875 L 534.9375 69.210938 L 535.789062 68.023438 L 536.644531 66.902344 L 537.503906 65.847656 L 538.367188 64.859375 L 539.234375 63.941406 L 540.105469 63.085938 L 540.980469 62.300781 L 541.863281 61.582031 L 542.753906 60.933594 L 543.648438 60.347656 L 544.550781 59.828125 L 545.464844 59.378906 L 546.382812 58.992188 L 547.3125 58.671875 L 548.253906 58.414062 L 549.203125 58.226562 L 550.167969 58.097656 L 551.144531 58.039062 L 552.132812 58.039062 L 553.140625 58.105469 L 554.164062 58.234375 L 555.203125 58.425781 L 556.257812 58.675781 L 557.328125 58.988281 L 558.410156 59.351562 L 559.496094 59.765625 L 560.582031 60.21875 L 561.664062 60.710938 L 562.734375 61.230469 L 563.792969 61.769531 L 564.835938 62.324219 L 565.863281 62.890625 L 566.878906 63.460938 L 567.878906 64.035156 L 568.863281 64.605469 L 569.832031 65.171875 L 570.789062 65.730469 L 571.734375 66.28125 L 572.667969 66.820312 L 573.589844 67.351562 L 574.503906 67.863281 L 575.40625 68.367188 L 576.296875 68.851562 L 577.183594 69.320312 L 578.0625 69.773438 L 578.933594 70.210938 L 579.796875 70.632812 L 580.652344 71.039062 L 581.507812 71.425781 L 582.355469 71.792969 L 583.195312 72.148438 L 584.039062 72.484375 L 584.875 72.808594 L 585.714844 73.113281 L 586.554688 73.40625 L 587.398438 73.6875 L 588.242188 73.949219 L 589.085938 74.203125 L 589.933594 74.441406 L 590.789062 74.667969 L 591.644531 74.886719 L 592.503906 75.089844 L 593.367188 75.289062 L 594.238281 75.476562 L 595.113281 75.65625 L 595.996094 75.832031 L 596.882812 76.003906 L 597.78125 76.171875 L 598.683594 76.34375 L 599.597656 76.511719 L 600.519531 76.683594 L 601.453125 76.863281 L 602.398438 77.050781 L 603.355469 77.253906 L 604.324219 77.46875 L 605.308594 77.703125 L 606.304688 77.957031 L 607.320312 78.242188 L 608.351562 78.558594 L 608.546875 78.621094 "/>
<path fill-rule="nonzero" fill="rgb(100%, 100%, 100%)" fill-opacity="1" stroke-width="1" stroke-linecap="butt" stroke-linejoin="miter" stroke="rgb(0%, 0%, 0%)" stroke-opacity="1" stroke-miterlimit="2" d="M 553 235 L 628 235 L 628 180 L 553 180 Z M 553 235 "/>
<path fill="none" stroke-width="1" stroke-linecap="butt" stroke-linejoin="miter" stroke="rgb(0%, 0%, 0%)" stroke-opacity="1" stroke-miterlimit="1.154701" d="M 99.453125 241.5 L 99.453125 246.5 "/>
<path fill="none" stroke-width="1" stroke-linecap="butt" stroke-linejoin="miter" stroke="rgb(0%, 0%, 0%)" stroke-opacity="1" stroke-miterlimit="1.154701" d="M 226.726562 241.5 L 226.726562 246.5 "/>
<path fill="none" stroke-width="1" stroke-linecap="butt" stroke-linejoin="miter" stroke="rgb(0%, 0%, 0%)" stroke-opacity="1" stroke-miterlimit="1.154701" d="M 354 241.5 L 354 246.5 "/>
<path fill="none" stroke-width="1" stroke-linecap="butt" stroke-linejoin="miter" stroke="rgb(0%, 0%, 0%)" stroke-opacity="1" stroke-miterlimit="1.154701" d="M 481.273438 241.5 L 481.273438 246.5 "/>
<path fill="none" stroke-width="1" stroke-linecap="butt" stroke-linejoin="miter" stroke="rgb(0%, 0%, 0%)" stroke-opacity="1" stroke-miterlimit="1.154701" d="M 608.546875 241.5 L 608.546875 246.5 "/>
<path fill="none" stroke-width="1" stroke-linecap="butt" stroke-linejoin="miter" stroke="rgb(0%, 0%, 0%)" stroke-opacity="1" stroke-miterlimit="1.154701" d="M 73.5 230.78125 L 68.5 230.78125 "/>
<path fill="none" stroke-width="1" stroke-linecap="butt" stroke-linejoin="miter" stroke="rgb(0%, 0%, 0%)" stroke-opacity="1" stroke-miterlimit="1.154701" d="M 73.5 179.644531 L 68.5 179.644531 "/>
<path fill="none" stroke-width="1" stroke-linecap="butt" stroke-linejoin="miter" stroke="rgb(0%, 0%, 0%)" stroke-opacity="1" stroke-miterlimit="1.154701" d="M 73.5 128.503906 L 68.5 128.503906 "/>
<path fill="none" stroke-width="1" stroke-linecap="butt" stroke-linejoin="miter" stroke="rgb(0%, 0%, 0%)" stroke-opacity="1" stroke-miterlimit="1.154701" d="M 73.5 77.367188 L 68.5 77.367188 "/>
<path fill="none" stroke-width="1" stroke-linecap="butt" stroke-linejoin="miter" stroke="rgb(0%, 0%, 0%)" stroke-opacity="1" stroke-miterlimit="1.154701" d="M 73.5 26.226562 L 68.5 26.226562 "/>
<path fill="none" stroke-width="1.5" stroke-linecap="butt" stroke-linejoin="miter" stroke="rgb(0%, 44.705883%, 69.803923%)" stroke-opacity="1" stroke-miterlimit="2" d="M 558.933594 196 L 578.933594 196 "/>
<path fill="none" stroke-width="1.5" stroke-linecap="butt" stroke-linejoin="miter" stroke="rgb(90.196079%, 62.352943%, 0%)" stroke-opacity="1" stroke-dasharray="4.5 4.5" stroke-miterlimit="2" d="M 558.933594 219 L 578.933594 219 "/>
<g fill="rgb(0%, 0%, 0%)" fill-opacity="1">
<use xlink:href="#glyph-0-10-ea1db8db" x="583.932002" y="201.102998"/>
<use xlink:href="#glyph-0-13-ea1db8db" x="591.716002" y="201.102998"/>
<use xlink:href="#glyph-0-9-ea1db8db" x="595.608001" y="201.102998"/>
<use xlink:href="#glyph-0-4-ea1db8db" x="603.392001" y="201.102998"/>
<use xlink:href="#glyph-0-14-ea1db8db" x="607.284001" y="201.102998"/>
<use xlink:href="#glyph-0-15-ea1db8db" x="614.284001" y="201.102998"/>
</g>
<g fill="rgb(0%, 0%, 0%)" fill-opacity="1">
<use xlink:href="#glyph-0-16-ea1db8db" x="583.931988" y="224.102998"/>
<use xlink:href="#glyph-0-4-ea1db8db" x="591.715988" y="224.102998"/>
<use xlink:href="#glyph-0-14-ea1db8db" x="595.607988" y="224.102998"/>
<use xlink:href="#glyph-0-15-ea1db8db" x="602.607987" y="224.102998"/>
</g>
<path fill="none" stroke-width="1" stroke-linecap="butt" stroke-linejoin="miter" stroke="rgb(0%, 0%, 0%)" stroke-opacity="1" stroke-miterlimit="1.154701" d="M 73.5 241 L 634.5 241 "/>
<path fill="none" stroke-width="1" stroke-linecap="butt" stroke-linejoin="miter" stroke="rgb(0%, 0%, 0%)" stroke-opacity="1" stroke-miterlimit="1.154701" d="M 74 241.5 L 74 15.5 "/>
<path fill="none" stroke-width="1" stroke-linecap="butt" stroke-linejoin="miter" stroke="rgb(0%, 0%, 0%)" stroke-opacity="1" stroke-miterlimit="1.154701" d="M 73.5 16 L 634.5 16 "/>
<path fill="none" stroke-width="1" stroke-linecap="butt" stroke-linejoin="miter" stroke="rgb(0%, 0%, 0%)" stroke-opacity="1" stroke-miterlimit="1.154701" d="M 634 241.5 L 634 15.5 "/>
</svg>
